<?xml version="1.0" encoding="utf-8"?>
<!-- Generator: Adobe Illustrator 20.1.0, SVG Export Plug-In . SVG Version: 6.00 Build 0)  -->
<svg version="1.1" id="Layer_1" xmlns="http://www.w3.org/2000/svg" xmlns:xlink="http://www.w3.org/1999/xlink" x="0px" y="0px"
	 viewBox="0 0 538.6 536.3" style="enable-background:new 0 0 538.6 536.3;" xml:space="preserve">
<g id="Layer_2">
	<polygon points="128.5,73.2 128.5,198.7 398.3,500.8 398.3,344.4 286.2,222.9 423.2,73.2 296.3,73.2 229.8,147.7 229.8,73.2 	"/>
	<polygon points="128.5,220.5 128.5,260.4 229.8,373.2 229.8,332.3 	"/>
	<polygon points="128.5,283.3 128.5,357.4 229.8,467.2 229.8,395 	"/>
</g>
<g id="Layer_3">
	<path d="M269.3,0C120.6,0,0,120.1,0,268.2c0,148.1,120.6,268.2,269.3,268.2c148.7,0,269.3-120.1,269.3-268.2
		C538.6,120.1,418,0,269.3,0z M270.3,510.7c-134.7,0-244-108.8-244-242.9c0-134.2,109.2-242.9,244-242.9
		c134.7,0,244,108.8,244,242.9S405,510.7,270.3,510.7z"/>
</g>
</svg>
